# xmcd
#
# Track frame offsets: 
#        150
#        15457
#        25132
#        45222
#        65515
#
# Disc length: 1027 seconds
#
# Revision: 0
# Processed by: cddbd v1.5.2PL0 Copyright (c) Steve Scherf et al.
# Submitted via: ExactAudioCopyFreeDBPlugin 1.0
#
DISCID=2f040105
DTITLE=PS I Love You - PS I Love You
DYEAR=2010
DGENRE=Alt. Rock
TTITLE0=Subtle and Majestic
TTITLE1=Facelove
TTITLE2=Scattered
TTITLE3=Actually (I Am a Monster Now.)
TTITLE4=Notes and Stuff
EXTD=
EXTT0=
EXTT1=
EXTT2=
EXTT3=
EXTT4=
PLAYORDER=
